<?xml version="1.0" ?><svg data-name="Layer 1" id="Layer_1" viewBox="0 0 57 80" xmlns="http://www.w3.org/2000/svg"><defs><style>.cls-1{fill:none;}</style></defs><title/><path class="cls-1" d="M14.76,22.67a4.68,4.68,0,0,0-3-1.93,4.73,4.73,0,0,0-3.5.79l-.58-.81a5.76,5.76,0,0,1,4.25-1,5.7,5.7,0,0,1,3.61,2.33q.56-.38,1.14-.73A4.83,4.83,0,0,0,15,18.9,6.62,6.62,0,1,0,6.43,29a3.82,3.82,0,0,0,2,.92A23.08,23.08,0,0,1,14.76,22.67Z"/><path class="cls-1" d="M28.5,19.08A21.94,21.94,0,0,0,6.58,41c0,3.14,1.51,6.47,3.74,9.69a14.19,14.19,0,0,0,3.7-6,14.76,14.76,0,0,0,.11-8,5.77,5.77,0,1,1,1.37,1.89A15.35,15.35,0,0,1,15,45a15.18,15.18,0,0,1-4.07,6.52c5.86,8,15.8,15.06,17.59,16.31C31.07,66,50.42,52.23,50.42,41A21.94,21.94,0,0,0,28.5,19.08Zm5.22,30a6.47,6.47,0,0,1-2.33-.43,6.57,6.57,0,0,1-2.81-2.1l-.07,0,0,0a6.55,6.55,0,0,1-2.8,2.08,6.47,6.47,0,0,1-2.33.43,6.56,6.56,0,0,1-1.5-.17l.23-1a5.55,5.55,0,0,0,3.24-.22A5.45,5.45,0,0,0,27.62,46c-1.37-.95-4.16-3-4.16-4.55,0-1.92,2.22-3.42,5-3.42s5,1.5,5,3.42c0,1.49-2.74,3.57-4.13,4.53a5.45,5.45,0,0,0,2.33,1.72A5.54,5.54,0,0,0,35,48l.23,1A6.56,6.56,0,0,1,33.72,49.1Zm7.15-12.58a4.37,4.37,0,0,1-7.56-4.37c1.17-2,4.3-1.89,6.53-.61a3.17,3.17,0,0,1,1.76,2.2A4.26,4.26,0,0,1,40.87,36.52Z"/><path class="cls-1" d="M39.33,32.41a6.23,6.23,0,0,0-2.94-.81,2.41,2.41,0,0,0-2.22,1.05,3.38,3.38,0,1,0,6.44,1.26A2.26,2.26,0,0,0,39.33,32.41Zm-2.25,3a1,1,0,1,1,1-1A1,1,0,0,1,37.09,35.38Z"/><path class="cls-1" d="M19.37,39.08a4.74,4.74,0,1,0-4.74-4.74A4.75,4.75,0,0,0,19.37,39.08ZM21,31.68l.47-.88a3.88,3.88,0,0,1-.5,7.1L20.66,37A2.88,2.88,0,0,0,21,31.68Z"/><path class="cls-1" d="M32.55,41.48c0-1.31-1.85-2.42-4-2.42s-4,1.11-4,2.42c0,.88,2.28,2.77,4,3.94C30.27,44.25,32.55,42.36,32.55,41.48Z"/><path class="cls-1" d="M46.7,17.36a6.57,6.57,0,0,0-4.83,1.55,4.9,4.9,0,0,0-1.7,2.39q.73.43,1.42.92a5.59,5.59,0,0,1,7.95-1.49l-.58.81a4.59,4.59,0,0,0-6.54,1.24L42,22.52a23.08,23.08,0,0,1,6.52,7.4,3.86,3.86,0,0,0,1.89-.9A6.62,6.62,0,0,0,46.7,17.36Z"/><path d="M52,19a7.63,7.63,0,0,0-10.75-.89,6.1,6.1,0,0,0-2,2.64,22.87,22.87,0,0,0-21.67.06,6,6,0,0,0-2-2.7A7.62,7.62,0,1,0,5.78,29.78a4.91,4.91,0,0,0,2.17,1.1A22.77,22.77,0,0,0,5.58,41c0,3.41,1.62,7,4,10.38a18,18,0,0,1-5,3.07l.36.93a19,19,0,0,0,5.22-3.19c6.42,8.74,17.42,16.2,18.07,16.64l.28.19.28-.19C29.7,68.21,51.42,53.5,51.42,41A22.77,22.77,0,0,0,49,30.84a5,5,0,0,0,2.05-1.07A7.62,7.62,0,0,0,52,19ZM6.43,29A6.62,6.62,0,1,1,15,18.9a4.83,4.83,0,0,1,1.72,2.45q-.58.35-1.14.73A5.7,5.7,0,0,0,12,19.76a5.76,5.76,0,0,0-4.25,1l.58.81a4.73,4.73,0,0,1,3.5-.79,4.68,4.68,0,0,1,3,1.93,23.08,23.08,0,0,0-6.32,7.26A3.82,3.82,0,0,1,6.43,29ZM28.5,67.81c-1.79-1.24-11.73-8.32-17.59-16.31A15.18,15.18,0,0,0,15,45a15.35,15.35,0,0,0,.52-6.41,5.74,5.74,0,1,0-1.37-1.89,14.76,14.76,0,0,1-.11,8,14.19,14.19,0,0,1-3.7,6C8.09,47.47,6.58,44.13,6.58,41a21.92,21.92,0,0,1,43.83,0C50.42,52.23,31.07,66,28.5,67.81ZM14.63,34.34a4.74,4.74,0,1,1,4.74,4.74A4.75,4.75,0,0,1,14.63,34.34ZM52.76,24.5A6.58,6.58,0,0,1,50.44,29a3.86,3.86,0,0,1-1.89.9A23.08,23.08,0,0,0,42,22.52l.39.26A4.59,4.59,0,0,1,49,21.53l.58-.81a5.59,5.59,0,0,0-7.95,1.49q-.69-.48-1.42-.92a4.9,4.9,0,0,1,1.7-2.39,6.62,6.62,0,0,1,10.89,5.6Z"/><path d="M31.75,47.74A5.45,5.45,0,0,1,29.42,46c1.38-1,4.13-3,4.13-4.53,0-1.92-2.22-3.42-5-3.42s-5,1.5-5,3.42c0,1.5,2.78,3.6,4.16,4.55a5.45,5.45,0,0,1-2.31,1.71,5.55,5.55,0,0,1-3.24.22l-.23,1a6.56,6.56,0,0,0,1.5.17,6.47,6.47,0,0,0,2.33-.43,6.55,6.55,0,0,0,2.8-2.08l0,0,.07,0a6.57,6.57,0,0,0,2.81,2.1,6.47,6.47,0,0,0,2.33.43,6.56,6.56,0,0,0,1.5-.17L35,48A5.54,5.54,0,0,1,31.75,47.74Zm-7.29-6.25c0-1.31,1.85-2.42,4-2.42s4,1.11,4,2.42c0,.88-2.28,2.77-4,3.94C26.74,44.25,24.46,42.36,24.46,41.48Z"/><path d="M39.83,31.55c-2.23-1.29-5.36-1.42-6.53.61a4.37,4.37,0,0,0,7.56,4.37,4.26,4.26,0,0,0,.73-2.77A3.17,3.17,0,0,0,39.83,31.55ZM40,36a3.37,3.37,0,1,1-5.83-3.37,2.41,2.41,0,0,1,2.22-1.05,6.23,6.23,0,0,1,2.94.81,2.26,2.26,0,0,1,1.28,1.5A3.35,3.35,0,0,1,40,36Z"/><path d="M20.66,37l.34.94a3.88,3.88,0,0,0,.5-7.1l-.47.88A2.88,2.88,0,0,1,20.66,37Z"/><circle cx="37.09" cy="34.34" r="1.04"/></svg>